<?xml version="1.0" encoding="UTF-8"?>
<!-- Generator: Adobe Illustrator 24.0.1, SVG Export Plug-In . SVG Version: 6.00 Build 0)  -->
<svg xmlns="http://www.w3.org/2000/svg" xmlns:xlink="http://www.w3.org/1999/xlink" version="1.1" id="Layer_1" x="0px" y="0px" viewBox="0 0 218.8 96.3" style="enable-background:new 0 0 218.8 96.3;" xml:space="preserve">
<style type="text/css">
	.st0{fill:#FFFFFF;}
</style>
<g>
	<g>
		<path class="st0" d="M93.3,18.7c1.7,1.1,3.3,1.9,4.7,3c0.5,0.4,0.8,1.4,0.8,2.1c0.1,2.6,0,5.3-0.1,7.9c0,0.7,0.2,1.2,1,1.2    c5.1-0.1,10.3-0.1,15.4-0.5c2.7-0.2,5.2-1.5,7-3.6c0.6-0.7,1.2-1.5,1.5-2.3c0.7-1.7,0.3-2.9-1.3-3.9c-6.9-4.4-13.9-8.9-20.8-13.3    c-0.2-0.1-0.3-0.2-0.6-0.4c0.7-1.1,1.4-2.2,2.2-3.4c1.3,0.8,2.5,1.5,3.8,2.3c7,4.5,13.9,8.9,20.9,13.4c1.2,0.7,1.6,1.6,1.5,3    c-0.1,4.3-2.5,7-5.9,9.2c-3,1.8-6.3,2.8-9.7,2.8c-6.2,0.2-12.5,0.1-18.7,0.2c-1.7,0-1.8-0.1-1.8-1.8c0-4.8,0-9.6,0-14.5L93.3,18.7    L93.3,18.7z"></path>
		<path class="st0" d="M119.4,24.7c-0.8,1.3-1.5,2.4-2.3,3.6c-1.2-0.8-2.4-1.5-3.5-2.2c-6-3.8-12-7.7-18.1-11.5    c-1.5-0.9-2.1-2-2.1-3.8c0.1-3.1,0-6.3,0-9.4c0-1,0.4-1.4,1.4-1.4c7,0.1,14.1,0.1,21.1,0.5c3.4,0.2,6.7,1.5,9.4,3.7    c2.6,2,4.1,4.6,4.1,8c0,1.5,0,2.9,0,4.6c-1.6-1.1-3.2-2-4.7-3.1c-0.4-0.3-0.7-1.2-0.7-1.8c0-3.6-2.2-5.4-5-6.7    c-2.4-1.1-5.1-1.5-7.7-1.6c-3.5-0.1-7,0-10.5,0c-1.8,0-1.9,0.1-1.9,1.8c0,1.6,0.1,3.3,0,4.9c0,1,0.3,1.6,1.2,2.2    c6.1,3.8,12.1,7.7,18.2,11.6C118.6,24.2,119,24.4,119.4,24.7L119.4,24.7z"></path>
		<path class="st0" d="M16.6,59.5c-1.1-1.2-2.5-2.2-4-2.9c-1.6-0.7-3.2-1-5.1-1H0.1v25.7h7.4c1.8,0,3.5-0.3,5.1-1    c1.6-0.7,2.9-1.6,4-2.9c1.1-1.2,1.9-2.6,2.5-4.1c0.6-1.5,0.9-3.2,0.9-4.9s-0.3-3.3-0.9-4.9C18.5,62,17.7,60.6,16.6,59.5     M17.4,72.7c-0.5,1.3-1.2,2.5-2.1,3.5c-2,2.2-4.6,3.4-7.8,3.4H1.9V57.4h5.6c3.2,0,5.8,1.1,7.8,3.3c0.9,1,1.6,2.2,2.1,3.5    c0.5,1.3,0.7,2.7,0.7,4.2C18.2,69.9,17.9,71.3,17.4,72.7L17.4,72.7z"></path>
		<polygon class="st0" points="46.6,79.5 31.7,79.5 31.7,69.4 43.3,69.4 43.3,67.5 29.9,67.5 29.9,81.3 46.6,81.3   "></polygon>
		<rect x="29.9" y="55.6" class="st0" width="16.7" height="1.8"></rect>
		<path class="st0" d="M81.5,68.8c-0.5-0.3-1.1-0.5-1.7-0.7c-0.7-0.2-1.4-0.3-2.1-0.4c-0.7-0.1-1.2-0.2-1.4-0.2    c-1.1-0.1-1.9-0.3-2.6-0.4c-0.7-0.1-1.3-0.3-1.8-0.6c-0.9-0.4-1.7-1.1-2.3-1.9c-0.6-0.8-0.9-1.6-0.9-2.4c0-0.7,0.2-1.3,0.6-1.9    c0.4-0.6,0.9-1.2,1.6-1.7c0.7-0.5,1.5-0.9,2.4-1.2c0.9-0.3,1.9-0.4,2.9-0.4c1,0,2,0.1,2.9,0.4c0.9,0.3,1.7,0.7,2.5,1.2    c0.7,0.5,1.2,1.1,1.5,1.7c0.4,0.6,0.6,1.2,0.6,1.9l1.7-1c-0.3-1.5-1.2-2.9-2.7-4c-1.8-1.3-4-2-6.5-2c-1.2,0-2.4,0.2-3.5,0.5    c-1.1,0.3-2.1,0.8-3,1.5c-0.9,0.7-1.6,1.4-2.1,2.3c-0.5,0.9-0.7,1.8-0.7,2.8c0,1.2,0.4,2.3,1.1,3.4c0.7,1,1.8,1.9,3,2.5    c0.8,0.4,1.8,0.7,2.9,0.9c1.1,0.2,1.8,0.3,2,0.3c2.2,0.3,3.8,0.6,4.7,1.1c0.9,0.5,1.6,1.1,2.2,1.8c0.5,0.7,0.8,1.5,0.8,2.3    c0,1.4-0.7,2.6-2.1,3.6c-1.5,1.1-3.2,1.6-5.3,1.6c-1,0-2-0.1-2.9-0.4c-0.9-0.3-1.7-0.7-2.4-1.2c-1.3-0.9-2.1-2.1-2.1-3.6l-1.7,1    c0.3,1.6,1.2,3,2.7,4.1c0.9,0.6,1.9,1.1,3,1.5c1.1,0.3,2.3,0.5,3.5,0.5c2.5,0,4.6-0.7,6.5-2c0.9-0.7,1.6-1.4,2.1-2.3    c0.5-0.9,0.7-1.8,0.7-2.8c0-1.1-0.3-2.2-1-3.2C83.6,70.4,82.7,69.5,81.5,68.8L81.5,68.8z"></path>
		<path class="st0" d="M92.9,81.3h2l3.1-6.5h13.7l2.9,6.5h1.9l-11.4-26.1L92.9,81.3L92.9,81.3z M98.8,73l6.2-13.3l5.9,13.3H98.8z"></path>
		<polygon class="st0" points="126.1,81.3 127.9,81.3 127.9,60.4 145.7,81.8 145.7,55.6 143.9,55.6 143.9,76.6 126.1,55.3   "></polygon>
		<polygon class="st0" points="155.2,57.4 165.4,57.4 165.4,81.3 167.2,81.3 167.2,57.4 177.4,57.4 177.4,55.6 155.2,55.6   "></polygon>
		<rect x="187.6" y="55.6" class="st0" width="1.8" height="25.7"></rect>
		<path class="st0" d="M217.7,71.4c-0.7-1-1.6-1.8-2.8-2.5c-0.5-0.3-1.1-0.5-1.7-0.7c-0.7-0.2-1.4-0.3-2.1-0.4    c-0.7-0.1-1.2-0.2-1.4-0.2c-1.1-0.1-1.9-0.3-2.6-0.4c-0.7-0.1-1.3-0.3-1.8-0.6c-0.9-0.4-1.7-1.1-2.3-1.9c-0.6-0.8-0.9-1.6-0.9-2.4    c0-0.7,0.2-1.3,0.6-1.9c0.4-0.6,0.9-1.2,1.6-1.7c0.7-0.5,1.5-0.9,2.4-1.2c0.9-0.3,1.9-0.4,2.9-0.4c1,0,2,0.1,2.9,0.4    c0.9,0.3,1.7,0.7,2.5,1.2c0.7,0.5,1.2,1.1,1.5,1.7c0.4,0.6,0.6,1.2,0.6,1.9l1.7-1c-0.3-1.5-1.2-2.9-2.7-4c-1.8-1.3-4-2-6.5-2    c-1.2,0-2.4,0.2-3.5,0.5c-1.1,0.3-2.1,0.8-3,1.5c-0.9,0.7-1.6,1.4-2.1,2.3c-0.5,0.9-0.7,1.8-0.7,2.8c0,1.2,0.4,2.3,1.1,3.4    c0.7,1,1.8,1.9,3,2.5c0.8,0.4,1.8,0.7,2.9,0.9c1.1,0.2,1.8,0.3,2,0.3c2.2,0.3,3.8,0.6,4.7,1.1c0.9,0.5,1.6,1.1,2.2,1.8    s0.8,1.5,0.8,2.3c0,1.4-0.7,2.6-2.1,3.6c-1.5,1.1-3.2,1.6-5.3,1.6c-1,0-2-0.1-2.9-0.4c-0.9-0.3-1.7-0.7-2.4-1.2    c-1.3-0.9-2.1-2.1-2.1-3.6l-1.7,1c0.3,1.6,1.2,3,2.7,4.1c0.9,0.6,1.9,1.1,3,1.5s2.3,0.5,3.5,0.5c2.5,0,4.6-0.7,6.5-2    c0.9-0.7,1.6-1.4,2.1-2.3c0.5-0.9,0.7-1.8,0.7-2.8C218.8,73.4,218.4,72.3,217.7,71.4L217.7,71.4z"></path>
	</g>
	<polygon class="st0" points="1.7,88.9 0.8,89.8 1.3,89.8 2.2,88.9  "></polygon>
	<polygon class="st0" points="0,95.4 3.1,95.4 3.1,95.1 0.4,95.1 0.4,92.9 3,92.9 3,92.6 0.4,92.6 0.4,90.6 3.1,90.6 3.1,90.3    0,90.3  "></polygon>
	<path class="st0" d="M10.9,94.1c0.2-0.4,0.2-0.8,0.2-1.3c0-0.8-0.2-1.5-0.6-1.9c-0.4-0.5-1-0.7-1.8-0.7c-0.8,0-1.3,0.2-1.8,0.7   c-0.4,0.5-0.6,1.1-0.6,1.9c0,0.8,0.2,1.5,0.6,1.9c0.4,0.5,1,0.7,1.8,0.7c0.5,0,0.9-0.1,1.2-0.3l0.6,0.8H11l-0.7-1   C10.6,94.8,10.8,94.5,10.9,94.1L10.9,94.1z M8.8,95.1c-0.3,0-0.6-0.1-0.9-0.2c-0.3-0.1-0.5-0.3-0.6-0.5C7.1,94.3,7,94,6.9,93.8   c-0.1-0.3-0.1-0.6-0.1-0.9c0-0.7,0.2-1.3,0.5-1.7c0.4-0.4,0.8-0.6,1.5-0.6s1.1,0.2,1.5,0.6c0.4,0.4,0.5,1,0.5,1.7   c0,0.9-0.2,1.5-0.7,1.9l-0.4-0.5H9.3l0.5,0.7C9.5,95.1,9.2,95.1,8.8,95.1L8.8,95.1z"></path>
	<path class="st0" d="M17.8,93.4c0,0.6-0.1,1-0.4,1.3c-0.2,0.3-0.6,0.4-1.1,0.4s-0.9-0.1-1.1-0.4c-0.2-0.3-0.4-0.8-0.4-1.3l0-3.1   h-0.4v3.1c0,0.7,0.2,1.2,0.5,1.6c0.3,0.3,0.8,0.5,1.4,0.5s1.1-0.2,1.4-0.5c0.3-0.3,0.5-0.9,0.5-1.6v-3.1h-0.4V93.4z"></path>
	<rect x="21.4" y="90.3" class="st0" width="0.4" height="5.1"></rect>
	<path class="st0" d="M27.9,90.6c-0.3-0.2-0.7-0.4-1.2-0.4H25v5.1h0.4v-2.3h1.3c0.5,0,0.9-0.1,1.2-0.4c0.3-0.2,0.4-0.6,0.4-1   C28.4,91.2,28.2,90.9,27.9,90.6L27.9,90.6z M25.4,90.6h1.3c0.4,0,0.8,0.1,1,0.3c0.2,0.2,0.3,0.4,0.3,0.8c0,0.3-0.1,0.6-0.4,0.8   c-0.2,0.2-0.6,0.3-1,0.3h-1.3V90.6L25.4,90.6z"></path>
	<polygon class="st0" points="31.7,95.4 34.7,95.4 34.7,95.1 32,95.1 32,92.9 34.7,92.9 34.7,92.6 32,92.6 32,90.6 34.7,90.6    34.7,90.3 31.7,90.3  "></polygon>
	<rect x="42.1" y="90.3" class="st0" width="0.4" height="5.1"></rect>
	<polygon class="st0" points="47.9,94.9 46.1,90.3 46.1,90.3 45.7,90.3 45.7,95.4 46.1,95.4 46.1,91.1 47.7,95.4 48.1,95.4    49.8,91.1 49.8,95.4 50.1,95.4 50.1,90.3 49.7,90.3  "></polygon>
	<polygon class="st0" points="55.5,94.9 53.7,90.3 53.7,90.3 53.3,90.3 53.3,95.4 53.7,95.4 53.7,91.1 55.3,95.4 55.7,95.4    57.4,91.1 57.4,95.4 57.7,95.4 57.7,90.3 57.4,90.3  "></polygon>
	<path class="st0" d="M63.4,90.2c-0.8,0-1.4,0.2-1.8,0.7C61.2,91.3,61,92,61,92.8c0,0.8,0.2,1.5,0.6,1.9c0.4,0.5,1,0.7,1.8,0.7   c0.8,0,1.3-0.2,1.8-0.7c0.4-0.5,0.6-1.1,0.6-1.9c0-0.8-0.2-1.5-0.6-2C64.7,90.4,64.1,90.2,63.4,90.2 M63.3,90.5   c0.6,0,1.1,0.2,1.5,0.6c0.3,0.4,0.5,1,0.5,1.7c0,0.7-0.2,1.3-0.5,1.7c-0.4,0.4-0.8,0.6-1.5,0.6c-0.3,0-0.6-0.1-0.9-0.2   c-0.3-0.1-0.5-0.3-0.6-0.5c-0.2-0.2-0.3-0.5-0.4-0.7c-0.1-0.3-0.1-0.6-0.1-0.9c0-0.7,0.2-1.3,0.5-1.7   C62.2,90.7,62.7,90.5,63.3,90.5L63.3,90.5z"></path>
	<path class="st0" d="M71.7,92.7c0.2-0.1,0.4-0.2,0.5-0.4c0.2-0.2,0.2-0.5,0.2-0.8c0-0.4-0.1-0.8-0.4-1c-0.3-0.2-0.7-0.3-1.2-0.3H69   v5.1h1.8c0.5,0,1-0.1,1.3-0.4c0.3-0.2,0.5-0.6,0.5-1c0-0.4-0.1-0.6-0.3-0.9C72.1,93,71.9,92.8,71.7,92.7L71.7,92.7z M69.4,92.9h1.4   c0.5,0,0.8,0.1,1,0.3c0.2,0.2,0.4,0.4,0.4,0.8c0,0.3-0.1,0.6-0.4,0.8c-0.3,0.2-0.6,0.3-1.1,0.3h-1.4V92.9L69.4,92.9z M71.7,92.3   c-0.2,0.2-0.6,0.3-1,0.3h-1.4v-2h1.3c0.4,0,0.8,0.1,1,0.3c0.2,0.2,0.3,0.4,0.3,0.7S72,92.1,71.7,92.3L71.7,92.3z"></path>
	<rect x="75.6" y="90.3" class="st0" width="0.4" height="5.1"></rect>
	<polygon class="st0" points="79.6,90.3 79.2,90.3 79.2,95.4 82.3,95.4 82.3,95.1 79.6,95.1  "></polygon>
	<rect x="85.4" y="90.3" class="st0" width="0.4" height="5.1"></rect>
	<polygon class="st0" points="91.2,89.8 90.4,88.9 89.9,88.9 90.8,89.8 90.8,89.8  "></polygon>
	<polygon class="st0" points="89.1,95.4 92.1,95.4 92.1,95.1 89.4,95.1 89.4,92.9 92.1,92.9 92.1,92.6 89.4,92.6 89.4,90.6    92.1,90.6 92.1,90.3 89.1,90.3  "></polygon>
	<path class="st0" d="M98.4,92.6c0.3-0.2,0.4-0.6,0.4-1s-0.2-0.7-0.4-1c-0.3-0.2-0.7-0.3-1.3-0.3h-1.7v5.1h0.4v-2.5h1l1.7,2.4l0,0   h0.4l-1.7-2.5C97.7,92.9,98.1,92.8,98.4,92.6L98.4,92.6z M95.8,90.6h1.4c0.4,0,0.8,0.1,1,0.3c0.2,0.2,0.3,0.4,0.3,0.7   c0,0.3-0.1,0.6-0.3,0.7c-0.2,0.2-0.6,0.3-1,0.3h-1.4V90.6z"></path>
	<polygon class="st0" points="102,95.4 105,95.4 105,95.1 102.3,95.1 102.3,92.9 105,92.9 105,92.6 102.3,92.6 102.3,90.6 105,90.6    105,90.3 102,90.3  "></polygon>
	<rect x="112.4" y="89.6" class="st0" width="0.3" height="6.7"></rect>
	<path class="st0" d="M123.1,92.6c0.3-0.2,0.4-0.6,0.4-1s-0.2-0.7-0.4-1c-0.3-0.2-0.7-0.3-1.3-0.3h-1.7v5.1h0.4v-2.5h1l1.7,2.4l0,0   h0.4l-1.7-2.5C122.4,92.9,122.8,92.8,123.1,92.6L123.1,92.6z M120.5,90.6h1.4c0.4,0,0.8,0.1,1,0.3c0.2,0.2,0.3,0.4,0.3,0.7   c0,0.3-0.1,0.6-0.3,0.7c-0.2,0.2-0.6,0.3-1,0.3h-1.4V90.6z"></path>
	<polygon class="st0" points="126.7,95.4 129.7,95.4 129.7,95.1 127.1,95.1 127.1,92.9 129.7,92.9 129.7,92.6 127.1,92.6    127.1,90.6 129.7,90.6 129.7,90.3 126.7,90.3  "></polygon>
	<path class="st0" d="M135.1,90.3h-0.3l-1.9,5.1h0.4l0.6-1.6h2.2l0.6,1.6h0.4L135.1,90.3L135.1,90.3L135.1,90.3z M135.9,93.4h-2   l1-2.7L135.9,93.4z"></path>
	<polygon class="st0" points="140.4,90.3 140.1,90.3 140.1,95.4 143.1,95.4 143.1,95.1 140.4,95.1  "></polygon>
	<polygon class="st0" points="150.4,95.4 153.4,95.4 153.4,95.1 150.8,95.1 150.8,92.9 153.4,92.9 153.4,92.6 150.8,92.6    150.8,90.6 153.4,90.6 153.4,90.3 150.4,90.3  "></polygon>
	<path class="st0" d="M159.1,92.6l-1-0.3c-0.7-0.2-1-0.5-1-0.9c0-0.3,0.1-0.5,0.3-0.7c0.2-0.2,0.6-0.2,1-0.2c0.2,0,0.5,0.1,0.7,0.2   c0.3,0.1,0.5,0.2,0.6,0.4c0.1,0,0.1,0.1,0.1,0.1l0,0l0.2-0.2l0,0c-0.2-0.2-0.5-0.4-0.8-0.5c-0.3-0.1-0.6-0.2-0.9-0.2   c-0.6,0-1,0.1-1.3,0.3c-0.3,0.2-0.5,0.5-0.5,0.9c0,0.6,0.4,1,1.3,1.2l1,0.2c0.7,0.2,1,0.5,1,1.1c0,0.3-0.1,0.6-0.4,0.8   c-0.3,0.2-0.7,0.3-1.2,0.3c-0.6,0-1.1-0.2-1.5-0.6c0,0-0.1-0.1-0.1-0.1l0,0l-0.2,0.3l0,0c0.5,0.5,1.1,0.7,1.8,0.7   c0.6,0,1.1-0.1,1.4-0.4c0.3-0.3,0.5-0.6,0.5-1.1C160.4,93.3,160,92.8,159.1,92.6L159.1,92.6z"></path>
	<polygon class="st0" points="163.2,90.6 164.9,90.6 164.9,95.4 165.2,95.4 165.2,90.6 166.9,90.6 166.9,90.3 163.2,90.3  "></polygon>
	<path class="st0" d="M172.1,90.3h-0.3l-1.9,5.1h0.4l0.6-1.6h2.2l0.6,1.6h0.4L172.1,90.3L172.1,90.3L172.1,90.3z M172.9,93.4h-2   l1-2.7L172.9,93.4z"></path>
	<polygon class="st0" points="175.8,90.6 177.5,90.6 177.5,95.4 177.8,95.4 177.8,90.6 179.5,90.6 179.5,90.3 175.8,90.3  "></polygon>
	<polygon class="st0" points="182.8,95.4 185.8,95.4 185.8,95.1 183.1,95.1 183.1,92.9 185.8,92.9 185.8,92.6 183.1,92.6    183.1,90.6 185.8,90.6 185.8,90.3 182.8,90.3  "></polygon>
	<polygon class="st0" points="193.1,90.6 194.8,90.6 194.8,95.4 195.2,95.4 195.2,90.6 196.8,90.6 196.8,90.3 193.1,90.3  "></polygon>
	<polygon class="st0" points="200.1,95.4 203.1,95.4 203.1,95.1 200.5,95.1 200.5,92.9 203.1,92.9 203.1,92.6 200.5,92.6    200.5,90.6 203.1,90.6 203.1,90.3 200.1,90.3  "></polygon>
	<path class="st0" d="M208.5,90.3h-0.3l-1.9,5.1h0.4l0.6-1.6h2.2l0.6,1.6h0.4L208.5,90.3L208.5,90.3L208.5,90.3z M209.3,93.4h-2   l1-2.7L209.3,93.4z"></path>
	<polygon class="st0" points="215.6,94.9 213.8,90.3 213.8,90.3 213.4,90.3 213.4,95.4 213.8,95.4 213.8,91.1 215.4,95.4    215.7,95.4 217.4,91.1 217.4,95.4 217.8,95.4 217.8,90.3 217.4,90.3  "></polygon>
</g>
</svg>
