<?xml version="1.0" encoding="utf-8"?>
<!-- Generator: Adobe Illustrator 26.0.2, SVG Export Plug-In . SVG Version: 6.00 Build 0)  -->
<svg fill="#FFFFFF" version="1.1" id="Layer_1" xmlns="http://www.w3.org/2000/svg" xmlns:xlink="http://www.w3.org/1999/xlink" x="0px" y="0px"
	 viewBox="0 0 306 43.29" style="enable-background:new 0 0 306 43.29;" xml:space="preserve">
<g>
	<rect x="72.43" y="34.45" width="1.34" height="8.08"/>
	<polygon points="93.39,42.53 92.05,42.53 92.05,35.92 92.02,35.92 87.82,41.19 83.65,35.92 83.62,35.92 83.62,42.53 82.28,42.53 
		82.28,34.45 83.95,34.45 87.83,39.33 91.72,34.45 93.39,34.45 	"/>
	<polygon points="113.01,42.53 111.67,42.53 111.67,35.92 111.64,35.92 107.44,41.19 103.27,35.92 103.24,35.92 103.24,42.53 
		101.9,42.53 101.9,34.45 103.57,34.45 107.45,39.33 111.34,34.45 113.01,34.45 	"/>
	<path d="M131.48,38.48c0,1.32-0.54,2.4-1.63,3.21c-0.95,0.72-2.14,1.07-3.55,1.07c-1.43,0-2.62-0.36-3.57-1.08
		c-1.09-0.82-1.63-1.89-1.63-3.2c0-1.3,0.55-2.36,1.65-3.19c0.97-0.73,2.15-1.09,3.55-1.09c1.41,0,2.59,0.36,3.54,1.09
		C130.93,36.12,131.48,37.18,131.48,38.48 M130.08,38.48c0-0.95-0.4-1.71-1.21-2.3c-0.69-0.51-1.55-0.76-2.58-0.76
		c-1.12,0-2.04,0.29-2.75,0.87c-0.71,0.58-1.06,1.31-1.06,2.19c0,0.92,0.35,1.65,1.04,2.22c0.69,0.56,1.62,0.84,2.77,0.84
		c1.15,0,2.06-0.28,2.75-0.85C129.74,40.12,130.08,39.39,130.08,38.48"/>
	<path d="M147.68,38.37c0.92,0.31,1.39,0.99,1.39,2.04c0,1.42-1.02,2.12-3.06,2.12h-6.44v-8.08h6.53c0.82,0,1.46,0.2,1.93,0.6
		c0.47,0.4,0.7,0.94,0.7,1.61C148.73,37.4,148.38,37.96,147.68,38.37 M146.12,37.83c0.37,0,0.68-0.11,0.93-0.32
		c0.25-0.21,0.37-0.47,0.37-0.78c0-0.33-0.11-0.59-0.33-0.79c-0.22-0.19-0.53-0.29-0.91-0.29h-5.27v2.18H146.12z M146.02,41.33
		c1.12,0,1.68-0.37,1.68-1.11c0-0.79-0.49-1.18-1.46-1.18h-5.33v2.29H146.02z"/>
	<rect x="157.17" y="34.45" width="1.34" height="8.08"/>
	<polygon points="174.6,42.53 167.02,42.53 167.02,34.45 168.36,34.45 168.36,41.33 174.6,41.33 	"/>
	<rect x="181.99" y="34.45" width="1.34" height="8.08"/>
	<polygon points="200.3,42.53 191.83,42.53 191.83,34.45 199.99,34.45 199.99,35.65 193.17,35.65 193.17,37.73 197.91,37.73 
		197.91,38.94 193.17,38.94 193.17,41.33 200.3,41.33 	"/>
	<path d="M217.29,42.53h-1.56l-2.19-3.08h-4.08v3.08h-1.34v-8.08h6.38c0.85,0,1.52,0.23,2,0.69c0.48,0.46,0.73,1.08,0.73,1.86
		c0,0.68-0.2,1.24-0.59,1.65c-0.36,0.39-0.87,0.63-1.51,0.74L217.29,42.53z M214.3,38.24c1.03,0,1.55-0.42,1.55-1.25
		c0-0.89-0.56-1.34-1.67-1.34h-4.71v2.59H214.3z"/>
</g>
<g>
	<polygon points="21.16,23.31 0,23.31 0,0.75 3.74,0.75 3.74,19.94 21.16,19.94 	"/>
	<path d="M50.82,23.31h-4.09l-2.6-5.05H28.94l-2.6,5.05h-4.09L34.18,0.75h4.71L50.82,23.31z M42.31,14.89L36.57,3.96l-5.82,10.93
		H42.31z"/>
	<polygon points="80.67,23.31 76.02,23.31 58.79,4.81 58.79,23.31 55.06,23.31 55.06,0.75 59.7,0.75 76.93,19.25 76.93,0.75 
		80.67,0.75 	"/>
	<path d="M115.88,11.68c0,3.67-1.31,6.63-3.94,8.89c-2.63,2.26-6.11,3.39-10.45,3.39c-3.97,0-7.28-1.01-9.94-3.02
		c-3.01-2.28-4.52-5.26-4.52-8.94c0-3.61,1.53-6.58,4.58-8.91c2.68-2.04,6.08-3.05,10.19-3.05c4.96,0,9.03,1.82,12.21,5.45
		l-3.49,1.74c-2.35-2.51-5.36-3.77-9.03-3.77c-2.87,0-5.27,0.71-7.2,2.12c-2.24,1.64-3.37,3.78-3.37,6.42c0,2.53,0.97,4.59,2.9,6.17
		c1.93,1.58,4.49,2.37,7.67,2.37c4.98,0,8.23-1.94,9.72-5.83h-10.5v-3.36h15.17V11.68z"/>
	<polygon points="145.85,23.31 122.23,23.31 122.23,0.75 144.98,0.75 144.98,4.11 125.97,4.11 125.97,9.91 139.18,9.91 
		139.18,13.27 125.97,13.27 125.97,19.94 145.85,19.94 	"/>
	<polygon points="176.48,0.75 164.32,23.31 160.03,23.31 147.87,0.75 152.05,0.75 162.18,19.54 172.3,0.75 	"/>
	<rect x="180.4" y="0.75" width="3.74" height="22.56"/>
	<polygon points="217.29,23.31 212.64,23.31 195.42,4.81 195.42,23.31 191.68,23.31 191.68,0.75 196.32,0.75 213.55,19.25 
		213.55,0.75 217.29,0.75 	"/>
</g>
<g>
	<polygon points="296.68,43.3 306.01,28.99 300.57,28.99 294.19,38.94 271.33,38.94 264.64,28.99 259.51,28.99 268.84,43.3 	"/>
	<polygon points="305.93,26.12 282.6,0 259.58,26.12 265.18,26.12 282.6,6.84 300.18,26.12 	"/>
</g>
</svg>
